<?xml version="1.0" standalone="no"?>
<!DOCTYPE svg PUBLIC "-//W3C//DTD SVG 20010904//EN"
 "http://www.w3.org/TR/2001/REC-SVG-20010904/DTD/svg10.dtd">
<svg version="1.0" xmlns="http://www.w3.org/2000/svg"
 width="718.000000pt" height="182.000000pt" viewBox="0 0 718.000000 182.000000"
 preserveAspectRatio="xMidYMid meet">
<metadata>
Created by potrace 1.16, written by Peter Selinger 2001-2019
</metadata>
<g transform="translate(0.000000,182.000000) scale(0.100000,-0.100000)"
fill="#000000" stroke="none">
<path d="M1394 1536 c-84 -42 -207 -156 -245 -228 -6 -13 -15 -25 -18 -28 -9
-8 -48 -93 -70 -155 -17 -47 -43 -215 -42 -265 2 -80 14 -148 31 -179 6 -12 8
-21 5 -21 -4 0 3 -13 14 -29 11 -15 18 -30 16 -33 -3 -2 19 -30 48 -61 68 -73
120 -96 215 -97 l73 0 42 -44 c59 -63 114 -86 207 -86 103 0 188 40 286 136
82 80 164 199 164 239 0 8 5 15 10 15 6 0 10 10 10 23 0 13 4 27 9 32 12 13
45 208 44 260 -2 138 -39 244 -116 331 -58 65 -122 94 -215 94 -72 0 -72 0
-110 42 -55 61 -120 88 -213 88 -66 0 -84 -4 -145 -34z"/>
<path d="M4088 1221 c-78 -16 -128 -75 -128 -149 0 -85 24 -114 171 -205 82
-50 109 -81 109 -122 0 -86 -110 -121 -232 -75 -29 11 -54 20 -55 20 -2 0 -3
-17 -3 -39 0 -37 1 -39 44 -50 62 -15 187 -14 227 3 91 38 125 144 76 231 -17
30 -47 55 -122 102 -55 34 -108 72 -117 84 -40 49 -11 118 59 138 28 8 109 0
146 -14 14 -6 17 -1 17 28 0 28 -4 36 -23 41 -44 11 -132 15 -169 7z"/>
<path d="M3000 1180 l0 -30 65 0 65 0 0 -245 0 -245 -65 0 -65 0 0 -30 0 -30
170 0 170 0 0 30 0 30 -65 0 -65 0 0 245 0 245 65 0 65 0 0 30 0 30 -170 0
-170 0 0 -30z"/>
<path d="M3460 906 l0 -306 35 0 35 0 2 223 3 222 115 -220 115 -220 38 -3 37
-3 0 305 0 306 -35 0 -35 0 -2 -222 -3 -221 -62 119 c-166 320 -165 319 -206
322 l-37 3 0 -305z"/>
<path d="M4390 1175 l0 -35 90 0 90 0 0 -270 0 -270 40 0 40 0 0 270 0 270 90
0 90 0 0 35 0 35 -220 0 -220 0 0 -35z"/>
<path d="M4940 905 l0 -305 160 0 160 0 0 35 0 34 -122 3 -123 3 -3 268 -2
267 -35 0 -35 0 0 -305z"/>
<path d="M5390 906 l0 -306 88 0 c156 1 214 26 257 110 58 115 54 323 -8 418
-38 58 -86 76 -219 80 l-118 4 0 -306z m235 220 c14 -9 35 -35 47 -59 20 -37
23 -57 23 -157 0 -95 -4 -122 -20 -154 -30 -59 -64 -79 -140 -84 l-65 -4 0
242 0 243 65 -5 c36 -3 76 -13 90 -22z"/>
</g>
</svg>
