<?xml version="1.0" standalone="yes"?>
<svg xmlns="http://www.w3.org/2000/svg" width="718" height="182">
<path style="fill:#ffffff; stroke:none;" d="M0 0L0 182L718 182L718 0L0 0z"/>
<path style="fill:#ff0080; stroke:none;" d="M142 138C127.8 103.946 136.381 51.0127 178 39C172.486 19.3568 144.463 23.3215 132 32.456C110.855 47.9534 100.48 75.3169 102.091 101C102.968 114.991 110.109 131.152 124.004 136.532C129.656 138.72 136.053 138 142 138z"/>
<path style="fill:#0080ff; stroke:none;" d="M178 38.5293C146.506 45.7588 131.631 87.4984 134.231 115.999C136.151 137.04 152.534 155.626 175 150.471C204.948 143.598 222.111 103.107 219.116 75.0895C216.806 53.4853 202.175 32.9798 178 38.5293z"/>
<path style="fill:#fbfdff; stroke:none;" d="M415 58L416 59L415 58z"/>
<path style="fill:#e0f0ff; stroke:none;" d="M407 59L408 60L407 59z"/>
<path style="fill:#a5d2ff; stroke:none;" d="M408 59L409 60L408 59z"/>
<path style="fill:#67b3ff; stroke:none;" d="M409 59L410 60L409 59z"/>
<path style="fill:#3399ff; stroke:none;" d="M410 59L411 60L410 59z"/>
<path style="fill:#2190ff; stroke:none;" d="M411 59L412 60L411 59z"/>
<path style="fill:#1389ff; stroke:none;" d="M412 59L413 60L412 59z"/>
<path style="fill:#0482ff; stroke:none;" d="M413 59L414 60L413 59z"/>
<path style="fill:#0080ff; stroke:none;" d="M395 113C395.188 128.859 424.584 125.452 430.08 113.996C439.59 94.1766 413.363 91.056 405.743 78.9846C396.428 64.2289 421.07 66.0519 428 68L428 61C414.596 58.5101 384.203 63.2048 398.653 83.9961C404.691 92.6836 418.127 94.4731 422.817 104.004C431.34 121.323 401.62 115.554 395 113z"/>
<path style="fill:#0c86ff; stroke:none;" d="M417 59L418 60L417 59z"/>
<path style="fill:#1e8fff; stroke:none;" d="M418 59L419 60L418 59z"/>
<path style="fill:#3399ff; stroke:none;" d="M419 59L420 60L419 59z"/>
<path style="fill:#46a3ff; stroke:none;" d="M420 59L421 60L420 59z"/>
<path style="fill:#5badff; stroke:none;" d="M421 59L422 60L421 59z"/>
<path style="fill:#87c3ff; stroke:none;" d="M422 59L423 60L422 59z"/>
<path style="fill:#c6e3ff; stroke:none;" d="M423 59L424 60L423 59z"/>
<path style="fill:#fafdff; stroke:none;" d="M424 59L425 60L424 59z"/>
<path style="fill:#e8f4ff; stroke:none;" d="M299 60L300 61L299 60z"/>
<path style="fill:#c3e1ff; stroke:none;" d="M300 60L300 61L334 61L300 60z"/>
<path style="fill:#eaf5ff; stroke:none;" d="M334 60L335 61L334 60z"/>
<path style="fill:#f3f9ff; stroke:none;" d="M345 60L346 61L345 60z"/>
<path style="fill:#c3e1ff; stroke:none;" d="M346 60L346 61L353 61L346 60z"/>
<path style="fill:#e8f4ff; stroke:none;" d="M353 60L354 61L353 60z"/>
<path style="fill:#eef7ff; stroke:none;" d="M376 60L377 61L376 60z"/>
<path style="fill:#c3e1ff; stroke:none;" d="M377 60L377 61L384 61L377 60z"/>
<path style="fill:#f3f9ff; stroke:none;" d="M384 60L385 61L384 60z"/>
<path style="fill:#e4f2ff; stroke:none;" d="M404 60L405 61L404 60z"/>
<path style="fill:#71b8ff; stroke:none;" d="M405 60L406 61L405 60z"/>
<path style="fill:#0c86ff; stroke:none;" d="M406 60L407 61L406 60z"/>
<path style="fill:#2d96ff; stroke:none;" d="M425 60L426 61L425 60z"/>
<path style="fill:#6db6ff; stroke:none;" d="M426 60L427 61L426 60z"/>
<path style="fill:#afd7ff; stroke:none;" d="M427 60L428 61L427 60z"/>
<path style="fill:#f8fcff; stroke:none;" d="M428 60L429 61L428 60z"/>
<path style="fill:#f2f9ff; stroke:none;" d="M438 60L439 61L438 60z"/>
<path style="fill:#c3e1ff; stroke:none;" d="M439 60L439 61L483 61C471.537 56.1898 451.48 60 439 60z"/>
<path style="fill:#f1f8ff; stroke:none;" d="M483 60L484 61L483 60z"/>
<path style="fill:#deefff; stroke:none;" d="M493 60L494 61L493 60z"/>
<path style="fill:#c3e1ff; stroke:none;" d="M494 60L494 61L501 61L494 60z"/>
<path style="fill:#deefff; stroke:none;" d="M501 60L502 61L501 60z"/>
<path style="fill:#fcfeff; stroke:none;" d="M538 60L539 61L538 60z"/>
<path style="fill:#c3e1ff; stroke:none;" d="M539 60L539 61L554 61L539 60z"/>
<path style="fill:#d0e8ff; stroke:none;" d="M554 60L555 61L554 60z"/>
<path style="fill:#e0f0ff; stroke:none;" d="M555 60L556 61L555 60z"/>
<path style="fill:#f1f8ff; stroke:none;" d="M556 60L557 61L556 60z"/>
<path style="fill:#5fafff; stroke:none;" d="M299 61L299 67L300 67L299 61z"/>
<path style="fill:#0080ff; stroke:none;" d="M300 61L300 67L313 67L313 116L300 116L300 122L334 122L334 116L321 116L321 67L334 67L334 61L300 61z"/>
<path style="fill:#68b4ff; stroke:none;" d="M334 61L334 67L335 67L334 61z"/>
<path style="fill:#99ccff; stroke:none;" d="M345 61L345 121L346 121L346 80L345 61z"/>
<path style="fill:#0080ff; stroke:none;" d="M346 61L346 122L353 122L353 77L354 77L369.309 108L376.637 120.397L384 122L384 61L377 61L377 106C370.739 95.2726 365.678 83.8272 359.576 73C355.819 66.3356 354.375 61.0992 346 61z"/>
<path style="fill:#379bff; stroke:none;" d="M353 61L354 62L353 61z"/>
<path style="fill:#7cbeff; stroke:none;" d="M376 61L376 102L377 102C377 90.3043 380.511 71.7499 376 61z"/>
<path style="fill:#97cbff; stroke:none;" d="M384 61L384 121L385 121L385 80L384 61z"/>
<path style="fill:#d9ecff; stroke:none;" d="M402 61L403 62L402 61z"/>
<path style="fill:#4ba5ff; stroke:none;" d="M403 61L404 62L403 61z"/>
<path style="fill:#d3e9ff; stroke:none;" d="M428 61L428 67L429 67L428 61z"/>
<path style="fill:#8cc6ff; stroke:none;" d="M438 61L438 67L439 67L438 61z"/>
<path style="fill:#0080ff; stroke:none;" d="M439 61L439 68L457 68L457 122L465 122L465 68L483 68L483 61L439 61z"/>
<path style="fill:#89c4ff; stroke:none;" d="M483 61L483 67L484 67L483 61z"/>
<path style="fill:#3198ff; stroke:none;" d="M493 61L493 121L494 121L494 80L493 61z"/>
<path style="fill:#0080ff; stroke:none;" d="M494 61L494 122L526 122L526 115L501 115L501 61L494 61z"/>
<path style="fill:#3198ff; stroke:none;" d="M501 61L501 114L502 114L502 78L501 61z"/>
<path style="fill:#bedfff; stroke:none;" d="M538 61L538 121L539 121L539 80L538 61z"/>
<path style="fill:#0080ff; stroke:none;" d="M539 61L539 122C547.544 122 559.625 123.477 566.996 118.347C581.139 108.505 582.425 74.8758 567.985 64.6528C560.241 59.1706 547.953 61 539 61z"/>
<path style="fill:#0482ff; stroke:none;" d="M558 61L559 62L558 61z"/>
<path style="fill:#1389ff; stroke:none;" d="M559 61L560 62L559 61z"/>
<path style="fill:#49a4ff; stroke:none;" d="M560 61L561 62L560 61z"/>
<path style="fill:#8bc5ff; stroke:none;" d="M561 61L562 62L561 61z"/>
<path style="fill:#c9e4ff; stroke:none;" d="M562 61L563 62L562 61z"/>
<path style="fill:#fbfdff; stroke:none;" d="M563 61L564 62L563 61z"/>
<path style="fill:#bcdeff; stroke:none;" d="M354 62L355 63L354 62z"/>
<path style="fill:#a5d2ff; stroke:none;" d="M401 62L402 63L401 62z"/>
<path style="fill:#0482ff; stroke:none;" d="M402 62L403 63L402 62z"/>
<path style="fill:#379bff; stroke:none;" d="M564 62L565 63L564 62z"/>
<path style="fill:#b6dbff; stroke:none;" d="M565 62L566 63L565 62z"/>
<path style="fill:#2894ff; stroke:none;" d="M354 63L355 64L354 63z"/>
<path style="fill:#62b1ff; stroke:none;" d="M400 63L401 64L400 63z"/>
<path style="fill:#2b95ff; stroke:none;" d="M566 63L567 64L566 63z"/>
<path style="fill:#b9dcff; stroke:none;" d="M567 63L568 64L567 63z"/>
<path style="fill:#aad5ff; stroke:none;" d="M355 64L356 65L355 64z"/>
<path style="fill:#71b8ff; stroke:none;" d="M399 64L400 65L399 64z"/>
<path style="fill:#3b9dff; stroke:none;" d="M568 64L569 65L568 64z"/>
<path style="fill:#f1f8ff; stroke:none;" d="M569 64L570 65L569 64z"/>
<path style="fill:#198cff; stroke:none;" d="M355 65L356 66L355 65z"/>
<path style="fill:#fdfeff; stroke:none;" d="M356 65L357 66L356 65z"/>
<path style="fill:#9dceff; stroke:none;" d="M398 65L399 66L398 65z"/>
<path style="fill:#0f87ff; stroke:none;" d="M413 65L414 66L413 65z"/>
<path style="fill:#3198ff; stroke:none;" d="M414 65L415 66L414 65z"/>
<path style="fill:#359aff; stroke:none;" d="M415 65L416 66L415 65z"/>
<path style="fill:#1c8eff; stroke:none;" d="M416 65L417 66L416 65z"/>
<path style="fill:#0482ff; stroke:none;" d="M417 65L418 66L417 65z"/>
<path style="fill:#1c8eff; stroke:none;" d="M569 65L570 66L569 65z"/>
<path style="fill:#e0f0ff; stroke:none;" d="M570 65L571 66L570 65z"/>
<path style="fill:#99ccff; stroke:none;" d="M356 66L357 67L356 66z"/>
<path style="fill:#e2f1ff; stroke:none;" d="M397 66L398 67L397 66z"/>
<path style="fill:#0f87ff; stroke:none;" d="M409 66L410 67L409 66z"/>
<path style="fill:#95caff; stroke:none;" d="M410 66L411 67L410 66z"/>
<path style="fill:#d3e9ff; stroke:none;" d="M411 66L412 67L411 66z"/>
<path style="fill:#f8fcff; stroke:none;" d="M412 66L413 67L412 66M418 66L419 67L418 66z"/>
<path style="fill:#dceeff; stroke:none;" d="M419 66L420 67L419 66z"/>
<path style="fill:#c2e1ff; stroke:none;" d="M420 66L421 67L420 66z"/>
<path style="fill:#89c4ff; stroke:none;" d="M421 66L422 67L421 66z"/>
<path style="fill:#359aff; stroke:none;" d="M422 66L423 67L422 66z"/>
<path style="fill:#0c86ff; stroke:none;" d="M570 66L571 67L570 66z"/>
<path style="fill:#e4f2ff; stroke:none;" d="M571 66L572 67L571 66z"/>
<path style="fill:#c2e1ff; stroke:none;" d="M299 67L300 68L299 67z"/>
<path style="fill:#80c0ff; stroke:none;" d="M300 67L300 68L312 68L300 67z"/>
<path style="fill:#4ba5ff; stroke:none;" d="M312 67L313 68L312 67z"/>
<path style="fill:#50a8ff; stroke:none;" d="M321 67L322 68L321 67z"/>
<path style="fill:#80c0ff; stroke:none;" d="M322 67L322 68L334 68L322 67z"/>
<path style="fill:#c6e3ff; stroke:none;" d="M334 67L335 68L334 67z"/>
<path style="fill:#0f87ff; stroke:none;" d="M356 67L357 68L356 67z"/>
<path style="fill:#f8fcff; stroke:none;" d="M357 67L358 68L357 67z"/>
<path style="fill:#51a8ff; stroke:none;" d="M397 67L398 68L397 67z"/>
<path style="fill:#0482ff; stroke:none;" d="M407 67L408 68L407 67z"/>
<path style="fill:#80c0ff; stroke:none;" d="M408 67L409 68L408 67z"/>
<path style="fill:#f7fbff; stroke:none;" d="M409 67L410 68L409 67z"/>
<path style="fill:#f3f9ff; stroke:none;" d="M423 67L424 68L423 67z"/>
<path style="fill:#abd5ff; stroke:none;" d="M424 67L425 68L424 67z"/>
<path style="fill:#58acff; stroke:none;" d="M425 67L426 68L425 67z"/>
<path style="fill:#0c86ff; stroke:none;" d="M426 67L427 68L426 67z"/>
<path style="fill:#d5eaff; stroke:none;" d="M428 67L429 68L428 67z"/>
<path style="fill:#93c9ff; stroke:none;" d="M438 67L439 68L438 67z"/>
<path style="fill:#92c9ff; stroke:none;" d="M483 67L484 68L483 67z"/>
<path style="fill:#4ca6ff; stroke:none;" d="M547 67L548 68L547 67z"/>
<path style="fill:#80c0ff; stroke:none;" d="M548 67L548 68L552 68L548 67z"/>
<path style="fill:#7dbeff; stroke:none;" d="M552 67L553 68L552 67z"/>
<path style="fill:#72b9ff; stroke:none;" d="M553 67L554 68L553 67z"/>
<path style="fill:#65b2ff; stroke:none;" d="M554 67L555 68L554 67z"/>
<path style="fill:#57abff; stroke:none;" d="M555 67L556 68L555 67z"/>
<path style="fill:#379bff; stroke:none;" d="M556 67L557 68L556 67z"/>
<path style="fill:#0f87ff; stroke:none;" d="M557 67L558 68L557 67z"/>
<path style="fill:#2492ff; stroke:none;" d="M571 67L572 68L571 67z"/>
<path style="fill:#f7fbff; stroke:none;" d="M572 67L573 68L572 67z"/>
<path style="fill:#b9dcff; stroke:none;" d="M312 68L312 115L313 115C313 101.735 317.11 80.1767 312 68z"/>
<path style="fill:#c2e1ff; stroke:none;" d="M321 68L321 115L322 115C322 101.735 326.109 80.1767 321 68z"/>
<path style="fill:#87c3ff; stroke:none;" d="M357 68L358 69L357 68z"/>
<path style="fill:#d1e8ff; stroke:none;" d="M396 68L397 69L396 68z"/>
<path style="fill:#1e8fff; stroke:none;" d="M406 68L407 69L406 68z"/>
<path style="fill:#eaf5ff; stroke:none;" d="M407 68L408 69L407 68z"/>
<path style="fill:#e1f0ff; stroke:none;" d="M427 68L428 69L427 68z"/>
<path style="fill:#fdfeff; stroke:none;" d="M438 68L439 69L438 68z"/>
<path style="fill:#f1f8ff; stroke:none;" d="M439 68L439 69L456 69L439 68z"/>
<path style="fill:#aad5ff; stroke:none;" d="M456 68L457 69L456 68z"/>
<path style="fill:#b3d9ff; stroke:none;" d="M465 68L466 69L465 68z"/>
<path style="fill:#f1f8ff; stroke:none;" d="M466 68L466 69L483 69L466 68z"/>
<path style="fill:#fdfeff; stroke:none;" d="M483 68L484 69L483 68z"/>
<path style="fill:#bedfff; stroke:none;" d="M547 68L547 114L548 114C548 100.997 552.01 79.9387 547 68z"/>
<path style="fill:#ffffff; stroke:none;" d="M548 68L548 114C552.968 114 558.654 114.696 562.787 111.347C571.932 103.937 571.933 79.4097 563.61 71.419C559.474 67.4489 553.279 68.0006 548 68z"/>
<path style="fill:#f2f9ff; stroke:none;" d="M558 68L559 69L558 68z"/>
<path style="fill:#a8d4ff; stroke:none;" d="M559 68L560 69L559 68z"/>
<path style="fill:#49a4ff; stroke:none;" d="M560 68L561 69L560 68z"/>
<path style="fill:#54aaff; stroke:none;" d="M572 68L573 69L572 68z"/>
<path style="fill:#0884ff; stroke:none;" d="M357 69L358 70L357 69z"/>
<path style="fill:#f2f9ff; stroke:none;" d="M358 69L359 70L358 69z"/>
<path style="fill:#6bb5ff; stroke:none;" d="M396 69L397 70L396 69z"/>
<path style="fill:#0482ff; stroke:none;" d="M405 69L406 70L405 69z"/>
<path style="fill:#deefff; stroke:none;" d="M406 69L407 70L406 69z"/>
<path style="fill:#b9dcff; stroke:none;" d="M456 69L456 121L457 121L457 86L456 69z"/>
<path style="fill:#c2e1ff; stroke:none;" d="M465 69L465 121L466 121L466 86L465 69z"/>
<path style="fill:#e2f1ff; stroke:none;" d="M561 69L562 70L561 69z"/>
<path style="fill:#48a4ff; stroke:none;" d="M562 69L563 70L562 69z"/>
<path style="fill:#bedfff; stroke:none;" d="M573 69L574 70L573 69z"/>
<path style="fill:#75baff; stroke:none;" d="M358 70L359 71L358 70z"/>
<path style="fill:#168bff; stroke:none;" d="M396 70L397 71L396 70z"/>
<path style="fill:#b6dbff; stroke:none;" d="M405 70L406 71L405 70z"/>
<path style="fill:#7dbeff; stroke:none;" d="M563 70L564 71L563 70z"/>
<path style="fill:#1c8eff; stroke:none;" d="M573 70L574 71L573 70z"/>
<path style="fill:#fcfeff; stroke:none;" d="M574 70L575 71L574 70z"/>
<path style="fill:#0482ff; stroke:none;" d="M358 71L359 72L358 71z"/>
<path style="fill:#e9f4ff; stroke:none;" d="M359 71L360 72L359 71z"/>
<path style="fill:#d9ecff; stroke:none;" d="M395 71L396 72L395 71z"/>
<path style="fill:#4ea7ff; stroke:none;" d="M404 71L405 72L404 71z"/>
<path style="fill:#68b4ff; stroke:none;" d="M564 71L565 72L564 71z"/>
<path style="fill:#97cbff; stroke:none;" d="M574 71L575 72L574 71z"/>
<path style="fill:#63b1ff; stroke:none;" d="M359 72L360 73L359 72z"/>
<path style="fill:#b0d8ff; stroke:none;" d="M395 72L396 73L395 72z"/>
<path style="fill:#92c9ff; stroke:none;" d="M404 72L405 73L404 72z"/>
<path style="fill:#53a9ff; stroke:none;" d="M565 72L566 73L565 72z"/>
<path style="fill:#1e8fff; stroke:none;" d="M574 72L575 73L574 72z"/>
<path style="fill:#dfefff; stroke:none;" d="M360 73L361 74L360 73z"/>
<path style="fill:#93c9ff; stroke:none;" d="M395 73L396 74L395 73z"/>
<path style="fill:#d0e8ff; stroke:none;" d="M404 73L405 74L404 73z"/>
<path style="fill:#fafdff; stroke:none;" d="M565 73L566 74L565 73z"/>
<path style="fill:#0f87ff; stroke:none;" d="M566 73L567 74L566 73z"/>
<path style="fill:#c1e0ff; stroke:none;" d="M575 73L576 74L575 73z"/>
<path style="fill:#51a8ff; stroke:none;" d="M360 74L361 75L360 74z"/>
<path style="fill:#76bbff; stroke:none;" d="M395 74L396 75L395 74z"/>
<path style="fill:#fafdff; stroke:none;" d="M404 74L405 75L404 74z"/>
<path style="fill:#97cbff; stroke:none;" d="M566 74L567 75L566 74z"/>
<path style="fill:#4ea7ff; stroke:none;" d="M575 74L576 75L575 74z"/>
<path style="fill:#d2e9ff; stroke:none;" d="M361 75L362 76L361 75z"/>
<path style="fill:#6cb6ff; stroke:none;" d="M395 75L396 76L395 75z"/>
<path style="fill:#d6ebff; stroke:none;" d="M404 75L405 76L404 75z"/>
<path style="fill:#fbfdff; stroke:none;" d="M566 75L567 76L566 75z"/>
<path style="fill:#1389ff; stroke:none;" d="M567 75L568 76L567 75z"/>
<path style="fill:#0884ff; stroke:none;" d="M575 75L576 76L575 75z"/>
<path style="fill:#3f9fff; stroke:none;" d="M361 76L362 77L361 76z"/>
<path style="fill:#85c2ff; stroke:none;" d="M395 76L396 77L395 76z"/>
<path style="fill:#a6d3ff; stroke:none;" d="M404 76L405 77L404 76z"/>
<path style="fill:#99ccff; stroke:none;" d="M567 76L568 77L567 76z"/>
<path style="fill:#d6ebff; stroke:none;" d="M576 76L577 77L576 76z"/>
<path style="fill:#0482ff; stroke:none;" d="M353 77L354 78L353 77z"/>
<path style="fill:#c4e2ff; stroke:none;" d="M362 77L363 78L362 77z"/>
<path style="fill:#aad5ff; stroke:none;" d="M395 77L396 78L395 77z"/>
<path style="fill:#62b1ff; stroke:none;" d="M404 77L405 78L404 77z"/>
<path style="fill:#fbfdff; stroke:none;" d="M567 77L568 78L567 77z"/>
<path style="fill:#0482ff; stroke:none;" d="M568 77L569 78L568 77z"/>
<path style="fill:#94caff; stroke:none;" d="M576 77L577 78L576 77z"/>
<path style="fill:#6eb7ff; stroke:none;" d="M353 78L354 79L353 78z"/>
<path style="fill:#2f97ff; stroke:none;" d="M362 78L363 79L362 78z"/>
<path style="fill:#cee7ff; stroke:none;" d="M395 78L396 79L395 78z"/>
<path style="fill:#d1e8ff; stroke:none;" d="M405 78L406 79L405 78z"/>
<path style="fill:#4ba5ff; stroke:none;" d="M568 78L569 79L568 78z"/>
<path style="fill:#51a8ff; stroke:none;" d="M576 78L577 79L576 78z"/>
<path style="fill:#88c4ff; stroke:none;" d="M353 79L354 80L353 79z"/>
<path style="fill:#50a8ff; stroke:none;" d="M354 79L355 80L354 79z"/>
<path style="fill:#b3d9ff; stroke:none;" d="M363 79L364 80L363 79z"/>
<path style="fill:#f2f9ff; stroke:none;" d="M395 79L396 80L395 79z"/>
<path style="fill:#2492ff; stroke:none;" d="M405 79L406 80L405 79z"/>
<path style="fill:#fdfeff; stroke:none;" d="M406 79L408 81L406 79z"/>
<path style="fill:#9dceff; stroke:none;" d="M568 79L569 80L568 79z"/>
<path style="fill:#0f87ff; stroke:none;" d="M576 79L577 80L576 79z"/>
<path style="fill:#82c1ff; stroke:none;" d="M353 80L354 81L353 80z"/>
<path style="fill:#d0e8ff; stroke:none;" d="M354 80L355 81L354 80z"/>
<path style="fill:#1e8fff; stroke:none;" d="M363 80L364 81L363 80z"/>
<path style="fill:#3d9eff; stroke:none;" d="M396 80L397 81L396 80z"/>
<path style="fill:#62b1ff; stroke:none;" d="M406 80L407 81L406 80z"/>
<path style="fill:#d7ebff; stroke:none;" d="M568 80L569 81L568 80z"/>
<path style="fill:#e3f1ff; stroke:none;" d="M577 80L578 81L577 80z"/>
<path style="fill:#7bbdff; stroke:none;" d="M353 81L354 82L353 81z"/>
<path style="fill:#399cff; stroke:none;" d="M355 81L356 82L355 81z"/>
<path style="fill:#a1d0ff; stroke:none;" d="M364 81L365 82L364 81z"/>
<path style="fill:#b5daff; stroke:none;" d="M396 81L397 82L396 81z"/>
<path style="fill:#44a2ff; stroke:none;" d="M407 81L408 82L407 81z"/>
<path style="fill:#f7fbff; stroke:none;" d="M408 81L409 82L408 81z"/>
<path style="fill:#fcfeff; stroke:none;" d="M568 81L569 82L568 81z"/>
<path style="fill:#a3d1ff; stroke:none;" d="M577 81L578 82L577 81z"/>
<path style="fill:#7abdff; stroke:none;" d="M353 82L353 121L354 121C354 109.828 357.311 92.274 353 82z"/>
<path style="fill:#bfdfff; stroke:none;" d="M355 82L356 83L355 82z"/>
<path style="fill:#1389ff; stroke:none;" d="M364 82L365 83L364 82z"/>
<path style="fill:#fbfdff; stroke:none;" d="M365 82L366 83L365 82z"/>
<path style="fill:#168bff; stroke:none;" d="M397 82L398 83L397 82z"/>
<path style="fill:#2894ff; stroke:none;" d="M408 82L409 83L408 82z"/>
<path style="fill:#e2f1ff; stroke:none;" d="M409 82L410 83L409 82z"/>
<path style="fill:#1e8fff; stroke:none;" d="M569 82L570 83L569 82z"/>
<path style="fill:#6bb5ff; stroke:none;" d="M577 82L578 83L577 82z"/>
<path style="fill:#399cff; stroke:none;" d="M356 83L357 84L356 83z"/>
<path style="fill:#90c8ff; stroke:none;" d="M365 83L366 84L365 83z"/>
<path style="fill:#9cceff; stroke:none;" d="M397 83L398 84L397 83z"/>
<path style="fill:#0482ff; stroke:none;" d="M409 83L410 84L409 83z"/>
<path style="fill:#8fc7ff; stroke:none;" d="M410 83L411 84L410 83z"/>
<path style="fill:#43a1ff; stroke:none;" d="M569 83L570 84L569 83z"/>
<path style="fill:#54aaff; stroke:none;" d="M577 83L578 84L577 83z"/>
<path style="fill:#cbe5ff; stroke:none;" d="M356 84L357 85L356 84z"/>
<path style="fill:#0c86ff; stroke:none;" d="M365 84L366 85L365 84z"/>
<path style="fill:#f4faff; stroke:none;" d="M366 84L367 85L366 84z"/>
<path style="fill:#51a8ff; stroke:none;" d="M398 84L399 85L398 84z"/>
<path style="fill:#2b95ff; stroke:none;" d="M411 84L412 85L411 84z"/>
<path style="fill:#d5eaff; stroke:none;" d="M412 84L413 85L412 84z"/>
<path style="fill:#5badff; stroke:none;" d="M569 84L570 85L569 84z"/>
<path style="fill:#41a0ff; stroke:none;" d="M577 84L578 85L577 84z"/>
<path style="fill:#48a4ff; stroke:none;" d="M357 85L358 86L357 85z"/>
<path style="fill:#7ebfff; stroke:none;" d="M366 85L367 86L366 85z"/>
<path style="fill:#f4faff; stroke:none;" d="M398 85L399 86L398 85z"/>
<path style="fill:#1c8eff; stroke:none;" d="M399 85L400 86L399 85z"/>
<path style="fill:#6db6ff; stroke:none;" d="M413 85L414 86L413 85z"/>
<path style="fill:#f3f9ff; stroke:none;" d="M414 85L415 86L414 85z"/>
<path style="fill:#74baff; stroke:none;" d="M569 85L570 86L569 85z"/>
<path style="fill:#2d96ff; stroke:none;" d="M577 85L578 86L577 85z"/>
<path style="fill:#d6ebff; stroke:none;" d="M357 86L358 87L357 86z"/>
<path style="fill:#0482ff; stroke:none;" d="M366 86L367 87L366 86z"/>
<path style="fill:#edf6ff; stroke:none;" d="M367 86L368 87L367 86z"/>
<path style="fill:#d6ebff; stroke:none;" d="M399 86L400 87L399 86z"/>
<path style="fill:#0482ff; stroke:none;" d="M400 86L401 87L400 86z"/>
<path style="fill:#0c86ff; stroke:none;" d="M414 86L415 87L414 86z"/>
<path style="fill:#a7d3ff; stroke:none;" d="M415 86L416 87L415 86z"/>
<path style="fill:#8cc6ff; stroke:none;" d="M569 86L570 87L569 86z"/>
<path style="fill:#1c8eff; stroke:none;" d="M577 86L578 87L577 86z"/>
<path style="fill:#56abff; stroke:none;" d="M358 87L359 88L358 87z"/>
<path style="fill:#6db6ff; stroke:none;" d="M367 87L368 88L367 87z"/>
<path style="fill:#d4eaff; stroke:none;" d="M400 87L401 88L400 87z"/>
<path style="fill:#0f87ff; stroke:none;" d="M401 87L402 88L401 87z"/>
<path style="fill:#379bff; stroke:none;" d="M416 87L417 88L416 87z"/>
<path style="fill:#dbedff; stroke:none;" d="M417 87L418 88L417 87z"/>
<path style="fill:#95caff; stroke:none;" d="M569 87L570 88L569 87z"/>
<path style="fill:#0c86ff; stroke:none;" d="M577 87L578 88L577 87z"/>
<path style="fill:#e0f0ff; stroke:none;" d="M358 88L359 89L358 88z"/>
<path style="fill:#e4f2ff; stroke:none;" d="M368 88L369 89L368 88z"/>
<path style="fill:#e9f4ff; stroke:none;" d="M401 88L402 89L401 88z"/>
<path style="fill:#2894ff; stroke:none;" d="M402 88L403 89L402 88z"/>
<path style="fill:#75baff; stroke:none;" d="M418 88L419 89L418 88z"/>
<path style="fill:#f7fbff; stroke:none;" d="M419 88L420 89L419 88z"/>
<path style="fill:#9dceff; stroke:none;" d="M569 88L570 89L569 88z"/>
<path style="fill:#65b2ff; stroke:none;" d="M359 89L360 90L359 89z"/>
<path style="fill:#5badff; stroke:none;" d="M368 89L369 90L368 89z"/>
<path style="fill:#f7fbff; stroke:none;" d="M402 89L403 90L402 89z"/>
<path style="fill:#49a4ff; stroke:none;" d="M403 89L404 90L403 89z"/>
<path style="fill:#0f87ff; stroke:none;" d="M419 89L420 90L419 89z"/>
<path style="fill:#aad5ff; stroke:none;" d="M420 89L421 90L420 89z"/>
<path style="fill:#a4d2ff; stroke:none;" d="M569 89L570 90L569 89z"/>
<path style="fill:#f9fcff; stroke:none;" d="M578 89L579 90L578 89z"/>
<path style="fill:#e8f4ff; stroke:none;" d="M359 90L360 91L359 90z"/>
<path style="fill:#0482ff; stroke:none;" d="M360 90L361 91L360 90z"/>
<path style="fill:#d8ecff; stroke:none;" d="M369 90L370 91L369 90z"/>
<path style="fill:#a0d0ff; stroke:none;" d="M404 90L405 91L404 90z"/>
<path style="fill:#0884ff; stroke:none;" d="M405 90L406 91L405 90z"/>
<path style="fill:#359aff; stroke:none;" d="M421 90L422 91L421 90z"/>
<path style="fill:#d5eaff; stroke:none;" d="M422 90L423 91L422 90z"/>
<path style="fill:#a7d3ff; stroke:none;" d="M569 90L570 91L569 90z"/>
<path style="fill:#e7f3ff; stroke:none;" d="M578 90L579 91L578 90z"/>
<path style="fill:#73b9ff; stroke:none;" d="M360 91L361 92L360 91z"/>
<path style="fill:#49a4ff; stroke:none;" d="M369 91L370 92L369 91z"/>
<path style="fill:#eaf5ff; stroke:none;" d="M405 91L406 92L405 91z"/>
<path style="fill:#56abff; stroke:none;" d="M406 91L407 92L406 91z"/>
<path style="fill:#7abdff; stroke:none;" d="M423 91L424 92L423 91z"/>
<path style="fill:#fcfeff; stroke:none;" d="M424 91L425 92L424 91z"/>
<path style="fill:#a3d1ff; stroke:none;" d="M569 91L570 92L569 91z"/>
<path style="fill:#d9ecff; stroke:none;" d="M578 91L579 92L578 91z"/>
<path style="fill:#eff7ff; stroke:none;" d="M360 92L361 93L360 92z"/>
<path style="fill:#0482ff; stroke:none;" d="M361 92L362 93L361 92z"/>
<path style="fill:#cbe5ff; stroke:none;" d="M370 92L371 93L370 92M407 92L408 93L407 92z"/>
<path style="fill:#2d96ff; stroke:none;" d="M408 92L409 93L408 92z"/>
<path style="fill:#399cff; stroke:none;" d="M424 92L425 93L424 92z"/>
<path style="fill:#f1f8ff; stroke:none;" d="M425 92L426 93L425 92z"/>
<path style="fill:#9dceff; stroke:none;" d="M569 92L570 93L569 92z"/>
<path style="fill:#e6f3ff; stroke:none;" d="M578 92L579 93L578 92z"/>
<path style="fill:#82c1ff; stroke:none;" d="M361 93L362 94L361 93z"/>
<path style="fill:#379bff; stroke:none;" d="M370 93L371 94L370 93z"/>
<path style="fill:#a5d2ff; stroke:none;" d="M409 93L410 94L409 93z"/>
<path style="fill:#0f87ff; stroke:none;" d="M410 93L411 94L410 93z"/>
<path style="fill:#198cff; stroke:none;" d="M425 93L426 94L425 93z"/>
<path style="fill:#dbedff; stroke:none;" d="M426 93L427 94L426 93z"/>
<path style="fill:#97cbff; stroke:none;" d="M569 93L570 94L569 93z"/>
<path style="fill:#fafdff; stroke:none;" d="M578 93L579 94L578 93z"/>
<path style="fill:#f5faff; stroke:none;" d="M361 94L362 95L361 94z"/>
<path style="fill:#0c86ff; stroke:none;" d="M362 94L363 95L362 94z"/>
<path style="fill:#bcdeff; stroke:none;" d="M371 94L372 95L371 94z"/>
<path style="fill:#f7fbff; stroke:none;" d="M410 94L411 95L410 94z"/>
<path style="fill:#7abdff; stroke:none;" d="M411 94L412 95L411 94z"/>
<path style="fill:#0482ff; stroke:none;" d="M426 94L428 96L426 94z"/>
<path style="fill:#bcdeff; stroke:none;" d="M427 94L428 95L427 94z"/>
<path style="fill:#8cc6ff; stroke:none;" d="M569 94L570 95L569 94z"/>
<path style="fill:#0482ff; stroke:none;" d="M577 94L578 95L577 94z"/>
<path style="fill:#90c8ff; stroke:none;" d="M362 95L363 96L362 95z"/>
<path style="fill:#2894ff; stroke:none;" d="M371 95L372 96L371 95z"/>
<path style="fill:#e3f1ff; stroke:none;" d="M412 95L413 96L412 95z"/>
<path style="fill:#4ca6ff; stroke:none;" d="M413 95L414 96L413 95z"/>
<path style="fill:#d5eaff; stroke:none;" d="M428 95L429 96L428 95z"/>
<path style="fill:#77bbff; stroke:none;" d="M569 95L570 96L569 95z"/>
<path style="fill:#0f87ff; stroke:none;" d="M577 95L578 96L577 95z"/>
<path style="fill:#fafdff; stroke:none;" d="M362 96L363 97L362 96z"/>
<path style="fill:#1389ff; stroke:none;" d="M363 96L364 97L363 96z"/>
<path style="fill:#aad5ff; stroke:none;" d="M372 96L373 97L372 96z"/>
<path style="fill:#bedfff; stroke:none;" d="M414 96L415 97L414 96z"/>
<path style="fill:#198cff; stroke:none;" d="M415 96L416 97L415 96M428 96L429 97L428 96z"/>
<path style="fill:#f3f9ff; stroke:none;" d="M429 96L430 97L429 96z"/>
<path style="fill:#62b1ff; stroke:none;" d="M569 96L570 97L569 96z"/>
<path style="fill:#2492ff; stroke:none;" d="M577 96L578 97L577 96z"/>
<path style="fill:#9ecfff; stroke:none;" d="M363 97L364 98L363 97z"/>
<path style="fill:#198cff; stroke:none;" d="M372 97L373 98L372 97z"/>
<path style="fill:#fdfeff; stroke:none;" d="M373 97L374 98L373 97z"/>
<path style="fill:#fafdff; stroke:none;" d="M415 97L416 98L415 97z"/>
<path style="fill:#7cbeff; stroke:none;" d="M416 97L417 98L416 97z"/>
<path style="fill:#49a4ff; stroke:none;" d="M429 97L430 98L429 97z"/>
<path style="fill:#4ca6ff; stroke:none;" d="M569 97L570 98L569 97z"/>
<path style="fill:#379bff; stroke:none;" d="M577 97L578 98L577 97z"/>
<path style="fill:#fdfeff; stroke:none;" d="M363 98L364 99L363 98z"/>
<path style="fill:#1c8eff; stroke:none;" d="M364 98L365 99L364 98z"/>
<path style="fill:#99ccff; stroke:none;" d="M373 98L374 99L373 98z"/>
<path style="fill:#cbe5ff; stroke:none;" d="M417 98L418 99L417 98z"/>
<path style="fill:#168bff; stroke:none;" d="M418 98L419 99L418 98z"/>
<path style="fill:#a3d1ff; stroke:none;" d="M430 98L431 99L430 98z"/>
<path style="fill:#2f97ff; stroke:none;" d="M569 98L570 99L569 98z"/>
<path style="fill:#4ca6ff; stroke:none;" d="M577 98L578 99L577 98z"/>
<path style="fill:#add6ff; stroke:none;" d="M364 99L365 100L364 99z"/>
<path style="fill:#0f87ff; stroke:none;" d="M373 99L374 100L373 99z"/>
<path style="fill:#f8fcff; stroke:none;" d="M374 99L375 100L374 99z"/>
<path style="fill:#f3f9ff; stroke:none;" d="M418 99L419 100L418 99z"/>
<path style="fill:#41a0ff; stroke:none;" d="M419 99L420 100L419 99z"/>
<path style="fill:#2693ff; stroke:none;" d="M430 99L431 100L430 99z"/>
<path style="fill:#0c86ff; stroke:none;" d="M569 99L570 100L569 99z"/>
<path style="fill:#62b1ff; stroke:none;" d="M577 99L578 100L577 99z"/>
<path style="fill:#2693ff; stroke:none;" d="M365 100L366 101L365 100z"/>
<path style="fill:#87c3ff; stroke:none;" d="M374 100L375 101L374 100z"/>
<path style="fill:#fdfeff; stroke:none;" d="M419 100L420 101L419 100z"/>
<path style="fill:#61b0ff; stroke:none;" d="M420 100L421 101L420 100z"/>
<path style="fill:#c9e4ff; stroke:none;" d="M431 100L432 101L431 100z"/>
<path style="fill:#f4faff; stroke:none;" d="M568 100L569 101L568 100z"/>
<path style="fill:#83c1ff; stroke:none;" d="M577 100L578 101L577 100z"/>
<path style="fill:#b9dcff; stroke:none;" d="M365 101L366 102L365 101z"/>
<path style="fill:#0884ff; stroke:none;" d="M374 101L375 102L374 101z"/>
<path style="fill:#fbfdff; stroke:none;" d="M375 101L376 102L375 101z"/>
<path style="fill:#51a8ff; stroke:none;" d="M421 101L422 102L421 101M431 101L432 102L431 101z"/>
<path style="fill:#c9e4ff; stroke:none;" d="M568 101L569 102L568 101z"/>
<path style="fill:#c7e3ff; stroke:none;" d="M577 101L578 102L577 101z"/>
<path style="fill:#359aff; stroke:none;" d="M366 102L367 103L366 102z"/>
<path style="fill:#abd5ff; stroke:none;" d="M375 102L376 103L375 102z"/>
<path style="fill:#83c1ff; stroke:none;" d="M376 102L377 103L376 102z"/>
<path style="fill:#f9fcff; stroke:none;" d="M421 102L422 103L421 102z"/>
<path style="fill:#0f87ff; stroke:none;" d="M422 102L423 103L422 102z"/>
<path style="fill:#0884ff; stroke:none;" d="M431 102L432 103L431 102z"/>
<path style="fill:#88c4ff; stroke:none;" d="M568 102L569 103L568 102z"/>
<path style="fill:#0482ff; stroke:none;" d="M576 102L577 103L576 102z"/>
<path style="fill:#fdfeff; stroke:none;" d="M577 102L578 103L577 102z"/>
<path style="fill:#c7e3ff; stroke:none;" d="M366 103L367 104L366 103z"/>
<path style="fill:#3d9eff; stroke:none;" d="M375 103L376 104L375 103z"/>
<path style="fill:#8cc6ff; stroke:none;" d="M376 103L377 104L376 103z"/>
<path style="fill:#a0d0ff; stroke:none;" d="M422 103L423 104L422 103z"/>
<path style="fill:#f3f9ff; stroke:none;" d="M432 103L433 104L432 103z"/>
<path style="fill:#46a3ff; stroke:none;" d="M568 103L569 104L568 103z"/>
<path style="fill:#3f9fff; stroke:none;" d="M576 103L577 104L576 103z"/>
<path style="fill:#43a1ff; stroke:none;" d="M367 104L368 105L367 104z"/>
<path style="fill:#77bbff; stroke:none;" d="M376 104L377 105L376 104z"/>
<path style="fill:#2190ff; stroke:none;" d="M423 104L424 105L423 104z"/>
<path style="fill:#d1e8ff; stroke:none;" d="M432 104L433 105L432 104z"/>
<path style="fill:#f1f8ff; stroke:none;" d="M567 104L568 105L567 104z"/>
<path style="fill:#0482ff; stroke:none;" d="M568 104L569 105L568 104z"/>
<path style="fill:#89c4ff; stroke:none;" d="M576 104L577 105L576 104z"/>
<path style="fill:#d3e9ff; stroke:none;" d="M367 105L368 106L367 105z"/>
<path style="fill:#198cff; stroke:none;" d="M376 105L377 106L376 105z"/>
<path style="fill:#7abdff; stroke:none;" d="M423 105L424 106L423 105z"/>
<path style="fill:#add6ff; stroke:none;" d="M432 105L433 106L432 105z"/>
<path style="fill:#87c3ff; stroke:none;" d="M567 105L568 106L567 105z"/>
<path style="fill:#d2e9ff; stroke:none;" d="M576 105L577 106L576 105z"/>
<path style="fill:#51a8ff; stroke:none;" d="M368 106L369 107L368 106z"/>
<path style="fill:#aad5ff; stroke:none;" d="M423 106L424 107L423 106z"/>
<path style="fill:#97cbff; stroke:none;" d="M432 106L433 107L432 106z"/>
<path style="fill:#fdfeff; stroke:none;" d="M566 106L567 107L566 106z"/>
<path style="fill:#1389ff; stroke:none;" d="M567 106L568 107L567 106z"/>
<path style="fill:#0884ff; stroke:none;" d="M575 106L576 107L575 106z"/>
<path style="fill:#dceeff; stroke:none;" d="M368 107L369 108L368 107z"/>
<path style="fill:#d1e8ff; stroke:none;" d="M423 107L424 108L423 107z"/>
<path style="fill:#a7d3ff; stroke:none;" d="M432 107L433 108L432 107z"/>
<path style="fill:#add6ff; stroke:none;" d="M566 107L567 108L566 107z"/>
<path style="fill:#4ca6ff; stroke:none;" d="M575 107L576 108L575 107z"/>
<path style="fill:#61b0ff; stroke:none;" d="M369 108L370 109L369 108z"/>
<path style="fill:#c2e1ff; stroke:none;" d="M423 108L424 109L423 108z"/>
<path style="fill:#c4e2ff; stroke:none;" d="M432 108L433 109L432 108z"/>
<path style="fill:#fafdff; stroke:none;" d="M565 108L566 109L565 108z"/>
<path style="fill:#2693ff; stroke:none;" d="M566 108L567 109L566 108z"/>
<path style="fill:#c7e3ff; stroke:none;" d="M575 108L576 109L575 108z"/>
<path style="fill:#e6f3ff; stroke:none;" d="M369 109L370 110L369 109z"/>
<path style="fill:#9acdff; stroke:none;" d="M423 109L424 110L423 109z"/>
<path style="fill:#e1f0ff; stroke:none;" d="M432 109L433 110L432 109z"/>
<path style="fill:#56abff; stroke:none;" d="M565 109L566 110L565 109z"/>
<path style="fill:#3d9eff; stroke:none;" d="M574 109L575 110L574 109z"/>
<path style="fill:#6eb7ff; stroke:none;" d="M370 110L371 111L370 110z"/>
<path style="fill:#3f9fff; stroke:none;" d="M423 110L424 111L423 110z"/>
<path style="fill:#0482ff; stroke:none;" d="M431 110L432 111L431 110z"/>
<path style="fill:#fcfeff; stroke:none;" d="M432 110L433 111L432 110z"/>
<path style="fill:#7cbeff; stroke:none;" d="M564 110L565 111L564 110z"/>
<path style="fill:#cbe5ff; stroke:none;" d="M574 110L575 111L574 110z"/>
<path style="fill:#edf6ff; stroke:none;" d="M370 111L371 112L370 111z"/>
<path style="fill:#0482ff; stroke:none;" d="M371 111L372 112L371 111z"/>
<path style="fill:#d3e9ff; stroke:none;" d="M422 111L423 112L422 111z"/>
<path style="fill:#4ba5ff; stroke:none;" d="M431 111L432 112L431 111z"/>
<path style="fill:#a0d0ff; stroke:none;" d="M563 111L564 112L563 111z"/>
<path style="fill:#43a1ff; stroke:none;" d="M573 111L574 112L573 111z"/>
<path style="fill:#7dbeff; stroke:none;" d="M371 112L372 113L371 112z"/>
<path style="fill:#fdfeff; stroke:none;" d="M394 112L395 113L394 112z"/>
<path style="fill:#cbe5ff; stroke:none;" d="M395 112L396 113L395 112z"/>
<path style="fill:#fdfeff; stroke:none;" d="M421 112L422 113L421 112z"/>
<path style="fill:#3b9dff; stroke:none;" d="M422 112L423 113L422 112z"/>
<path style="fill:#a5d2ff; stroke:none;" d="M431 112L432 113L431 112z"/>
<path style="fill:#edf6ff; stroke:none;" d="M561 112L562 113L561 112z"/>
<path style="fill:#58acff; stroke:none;" d="M562 112L563 113L562 112z"/>
<path style="fill:#d0e8ff; stroke:none;" d="M573 112L574 113L573 112z"/>
<path style="fill:#f3f9ff; stroke:none;" d="M371 113L372 114L371 113z"/>
<path style="fill:#0884ff; stroke:none;" d="M372 113L373 114L372 113z"/>
<path style="fill:#d3e9ff; stroke:none;" d="M394 113L394 120L395 120L394 113z"/>
<path style="fill:#168bff; stroke:none;" d="M396 113L397 114L396 113z"/>
<path style="fill:#89c4ff; stroke:none;" d="M397 113L398 114L397 113z"/>
<path style="fill:#f1f8ff; stroke:none;" d="M398 113L399 114L398 113z"/>
<path style="fill:#5badff; stroke:none;" d="M421 113L422 114L421 113z"/>
<path style="fill:#0482ff; stroke:none;" d="M430 113L431 114L430 113z"/>
<path style="fill:#f3f9ff; stroke:none;" d="M431 113L432 114L431 113z"/>
<path style="fill:#bedfff; stroke:none;" d="M559 113L560 114L559 113z"/>
<path style="fill:#5daeff; stroke:none;" d="M560 113L561 114L560 113z"/>
<path style="fill:#0482ff; stroke:none;" d="M561 113L562 114L561 113z"/>
<path style="fill:#49a4ff; stroke:none;" d="M572 113L573 114L572 113z"/>
<path style="fill:#8cc6ff; stroke:none;" d="M372 114L373 115L372 114z"/>
<path style="fill:#0482ff; stroke:none;" d="M398 114L399 115L398 114z"/>
<path style="fill:#5fafff; stroke:none;" d="M399 114L400 115L399 114z"/>
<path style="fill:#c7e3ff; stroke:none;" d="M400 114L401 115L400 114z"/>
<path style="fill:#f1f8ff; stroke:none;" d="M419 114L420 115L419 114z"/>
<path style="fill:#5badff; stroke:none;" d="M420 114L421 115L420 114z"/>
<path style="fill:#8cc6ff; stroke:none;" d="M430 114L431 115L430 114z"/>
<path style="fill:#1389ff; stroke:none;" d="M501 114L502 115L501 114z"/>
<path style="fill:#b4daff; stroke:none;" d="M502 114L502 115L526 115L502 114z"/>
<path style="fill:#e0f0ff; stroke:none;" d="M526 114L527 115L526 114z"/>
<path style="fill:#76bbff; stroke:none;" d="M547 114L548 115L547 114z"/>
<path style="fill:#b4daff; stroke:none;" d="M548 114L548 115L552 115L548 114z"/>
<path style="fill:#add6ff; stroke:none;" d="M552 114L553 115L552 114z"/>
<path style="fill:#9ecfff; stroke:none;" d="M553 114L554 115L553 114z"/>
<path style="fill:#92c9ff; stroke:none;" d="M554 114L555 115L554 114z"/>
<path style="fill:#82c1ff; stroke:none;" d="M555 114L556 115L555 114z"/>
<path style="fill:#58acff; stroke:none;" d="M556 114L557 115L556 114z"/>
<path style="fill:#2894ff; stroke:none;" d="M557 114L558 115L557 114z"/>
<path style="fill:#0482ff; stroke:none;" d="M558 114L559 115L558 114z"/>
<path style="fill:#1e8fff; stroke:none;" d="M571 114L572 115L571 114z"/>
<path style="fill:#eff7ff; stroke:none;" d="M572 114L573 115L572 114z"/>
<path style="fill:#a4d2ff; stroke:none;" d="M299 115L300 116L299 115z"/>
<path style="fill:#49a4ff; stroke:none;" d="M300 115L300 116L312 116L300 115z"/>
<path style="fill:#2492ff; stroke:none;" d="M312 115L313 116L312 115z"/>
<path style="fill:#2894ff; stroke:none;" d="M321 115L322 116L321 115z"/>
<path style="fill:#49a4ff; stroke:none;" d="M322 115L322 116L334 116L322 115z"/>
<path style="fill:#aad5ff; stroke:none;" d="M334 115L335 116L334 115z"/>
<path style="fill:#f9fcff; stroke:none;" d="M372 115L373 116L372 115z"/>
<path style="fill:#0f87ff; stroke:none;" d="M373 115L374 116L373 115z"/>
<path style="fill:#0c86ff; stroke:none;" d="M401 115L402 116L401 115z"/>
<path style="fill:#62b1ff; stroke:none;" d="M402 115L403 116L402 115z"/>
<path style="fill:#bcdeff; stroke:none;" d="M403 115L404 116L403 115z"/>
<path style="fill:#fcfeff; stroke:none;" d="M404 115L405 116L404 115M417 115L418 116L417 115z"/>
<path style="fill:#98ccff; stroke:none;" d="M418 115L419 116L418 115z"/>
<path style="fill:#0884ff; stroke:none;" d="M419 115L420 116L419 115z"/>
<path style="fill:#168bff; stroke:none;" d="M429 115L430 116L429 115z"/>
<path style="fill:#fbfdff; stroke:none;" d="M430 115L431 116L430 115z"/>
<path style="fill:#5daeff; stroke:none;" d="M526 115L526 121L527 121L526 115z"/>
<path style="fill:#1389ff; stroke:none;" d="M570 115L571 116L570 115z"/>
<path style="fill:#e8f4ff; stroke:none;" d="M571 115L572 116L571 115z"/>
<path style="fill:#5fafff; stroke:none;" d="M299 116L299 121L300 121L299 116z"/>
<path style="fill:#68b4ff; stroke:none;" d="M334 116L334 121L335 121L334 116z"/>
<path style="fill:#9acdff; stroke:none;" d="M373 116L374 117L373 116z"/>
<path style="fill:#0482ff; stroke:none;" d="M404 116L405 117L404 116z"/>
<path style="fill:#3198ff; stroke:none;" d="M405 116L406 117L405 116z"/>
<path style="fill:#6ab5ff; stroke:none;" d="M406 116L407 117L406 116z"/>
<path style="fill:#a3d1ff; stroke:none;" d="M407 116L408 117L407 116z"/>
<path style="fill:#d5eaff; stroke:none;" d="M408 116L409 117L408 116z"/>
<path style="fill:#edf6ff; stroke:none;" d="M409 116L410 117L409 116z"/>
<path style="fill:#fafdff; stroke:none;" d="M413 116L414 117L413 116z"/>
<path style="fill:#e1f0ff; stroke:none;" d="M414 116L415 117L414 116z"/>
<path style="fill:#a9d4ff; stroke:none;" d="M415 116L416 117L415 116z"/>
<path style="fill:#51a8ff; stroke:none;" d="M416 116L417 117L416 116z"/>
<path style="fill:#0884ff; stroke:none;" d="M417 116L418 117L417 116z"/>
<path style="fill:#c0e0ff; stroke:none;" d="M429 116L430 117L429 116z"/>
<path style="fill:#0c86ff; stroke:none;" d="M569 116L570 117L569 116z"/>
<path style="fill:#dfefff; stroke:none;" d="M570 116L571 117L570 116z"/>
<path style="fill:#fcfeff; stroke:none;" d="M373 117L374 118L373 117z"/>
<path style="fill:#198cff; stroke:none;" d="M374 117L375 118L374 117z"/>
<path style="fill:#0482ff; stroke:none;" d="M411.667 117.333L412.333 117.667L411.667 117.333z"/>
<path style="fill:#9acdff; stroke:none;" d="M428 117L429 118L428 117z"/>
<path style="fill:#0482ff; stroke:none;" d="M568 117L569 118L568 117z"/>
<path style="fill:#d3e9ff; stroke:none;" d="M569 117L570 118L569 117z"/>
<path style="fill:#a8d4ff; stroke:none;" d="M374 118L375 119L374 118z"/>
<path style="fill:#73b9ff; stroke:none;" d="M427 118L428 119L427 118z"/>
<path style="fill:#2190ff; stroke:none;" d="M567 118L568 119L567 118z"/>
<path style="fill:#cfe7ff; stroke:none;" d="M568 118L569 119L568 118z"/>
<path style="fill:#2492ff; stroke:none;" d="M375 119L376 120L375 119z"/>
<path style="fill:#9acdff; stroke:none;" d="M426 119L427 120L426 119z"/>
<path style="fill:#0482ff; stroke:none;" d="M565 119L566 120L565 119z"/>
<path style="fill:#8dc6ff; stroke:none;" d="M566 119L567 120L566 119z"/>
<path style="fill:#fdfeff; stroke:none;" d="M567 119L568 120L567 119z"/>
<path style="fill:#b6dbff; stroke:none;" d="M375 120L376 121L375 120z"/>
<path style="fill:#e8f4ff; stroke:none;" d="M394 120L395 121L394 120z"/>
<path style="fill:#0884ff; stroke:none;" d="M395 120L396 121L395 120z"/>
<path style="fill:#198cff; stroke:none;" d="M424 120L425 121L424 120z"/>
<path style="fill:#d4eaff; stroke:none;" d="M425 120L426 121L425 120z"/>
<path style="fill:#43a1ff; stroke:none;" d="M563 120L564 121L563 120z"/>
<path style="fill:#a6d3ff; stroke:none;" d="M564 120L565 121L564 120z"/>
<path style="fill:#f5faff; stroke:none;" d="M565 120L566 121L565 120z"/>
<path style="fill:#6cb6ff; stroke:none;" d="M299 121L300 122L299 121z"/>
<path style="fill:#74baff; stroke:none;" d="M334 121L335 122L334 121z"/>
<path style="fill:#a5d2ff; stroke:none;" d="M345 121L346 122L345 121z"/>
<path style="fill:#86c3ff; stroke:none;" d="M353 121L354 122L353 121z"/>
<path style="fill:#2f97ff; stroke:none;" d="M376 121L377 122L376 121z"/>
<path style="fill:#a3d1ff; stroke:none;" d="M384 121L385 122L384 121z"/>
<path style="fill:#fcfeff; stroke:none;" d="M395 121L396 122L395 121z"/>
<path style="fill:#b9dcff; stroke:none;" d="M396 121L397 122L396 121z"/>
<path style="fill:#5badff; stroke:none;" d="M397 121L398 122L397 121z"/>
<path style="fill:#0884ff; stroke:none;" d="M398 121L399 122L398 121z"/>
<path style="fill:#2894ff; stroke:none;" d="M422 121L423 122L422 121z"/>
<path style="fill:#a0d0ff; stroke:none;" d="M423 121L424 122L423 121z"/>
<path style="fill:#fafdff; stroke:none;" d="M424 121L425 122L424 121z"/>
<path style="fill:#c5e2ff; stroke:none;" d="M456 121L457 122L456 121z"/>
<path style="fill:#cee7ff; stroke:none;" d="M465 121L466 122L465 121z"/>
<path style="fill:#3d9eff; stroke:none;" d="M493 121L494 122L493 121z"/>
<path style="fill:#6ab5ff; stroke:none;" d="M526 121L527 122L526 121z"/>
<path style="fill:#c9e4ff; stroke:none;" d="M538 121L539 122L538 121z"/>
<path style="fill:#0884ff; stroke:none;" d="M555 121L556 122L555 121z"/>
<path style="fill:#1389ff; stroke:none;" d="M556 121L557 122L556 121z"/>
<path style="fill:#1e8fff; stroke:none;" d="M557 121L558 122L557 121z"/>
<path style="fill:#3198ff; stroke:none;" d="M558 121L559 122L558 121z"/>
<path style="fill:#62b1ff; stroke:none;" d="M559 121L560 122L559 121z"/>
<path style="fill:#93c9ff; stroke:none;" d="M560 121L561 122L560 121z"/>
<path style="fill:#c3e1ff; stroke:none;" d="M561 121L562 122L561 121z"/>
<path style="fill:#f3f9ff; stroke:none;" d="M562 121L563 122L562 121z"/>
<path style="fill:#fcfeff; stroke:none;" d="M398 122L399 123L398 122z"/>
<path style="fill:#bddeff; stroke:none;" d="M399 122L400 123L399 122z"/>
<path style="fill:#72b9ff; stroke:none;" d="M400 122L401 123L400 122z"/>
<path style="fill:#2d96ff; stroke:none;" d="M401 122L402 123L401 122z"/>
<path style="fill:#1e8fff; stroke:none;" d="M419 122L420 123L419 122z"/>
<path style="fill:#5eafff; stroke:none;" d="M420 122L421 123L420 122z"/>
<path style="fill:#cbe5ff; stroke:none;" d="M421 122L422 123L421 122z"/>
<path style="fill:#f7fbff; stroke:none;" d="M402 123L403 124L402 123z"/>
<path style="fill:#c3e1ff; stroke:none;" d="M403 123L404 124L403 123z"/>
<path style="fill:#a7d3ff; stroke:none;" d="M404 123L405 124L404 123z"/>
<path style="fill:#8ec7ff; stroke:none;" d="M405 123L406 124L405 123z"/>
<path style="fill:#75baff; stroke:none;" d="M406 123L407 124L406 123z"/>
<path style="fill:#5badff; stroke:none;" d="M407 123L408 124L407 123z"/>
<path style="fill:#43a1ff; stroke:none;" d="M408 123L409 124L408 123z"/>
<path style="fill:#2b95ff; stroke:none;" d="M409 123L410 124L409 123z"/>
<path style="fill:#3198ff; stroke:none;" d="M410 123L411 124L410 123z"/>
<path style="fill:#2190ff; stroke:none;" d="M411 123L412 124L411 123z"/>
<path style="fill:#3399ff; stroke:none;" d="M412 123L413 124L412 123z"/>
<path style="fill:#43a1ff; stroke:none;" d="M413 123L414 124L413 123z"/>
<path style="fill:#54aaff; stroke:none;" d="M414 123L415 124L414 123z"/>
<path style="fill:#65b2ff; stroke:none;" d="M415 123L416 124L415 123z"/>
<path style="fill:#87c3ff; stroke:none;" d="M416 123L417 124L416 123z"/>
<path style="fill:#c1e0ff; stroke:none;" d="M417 123L418 124L417 123z"/>
<path style="fill:#f5faff; stroke:none;" d="M418 123L419 124L418 123z"/>
</svg>
